<?xml version="1.0" encoding="UTF-8" standalone="no"?>
<svg
   viewBox="0 0 456 456"
   version="1.1"
   id="svg3"
   sodipodi:docname="appicon.svg"
   inkscape:version="1.3.2 (091e20e, 2023-11-25, custom)"
   xmlns:inkscape="http://www.inkscape.org/namespaces/inkscape"
   xmlns:sodipodi="http://sodipodi.sourceforge.net/DTD/sodipodi-0.dtd"
   xmlns="http://www.w3.org/2000/svg"
   xmlns:svg="http://www.w3.org/2000/svg">
  <defs
     id="defs3" />
  <sodipodi:namedview
     id="namedview3"
     pagecolor="#505050"
     bordercolor="#eeeeee"
     borderopacity="1"
     inkscape:showpageshadow="0"
     inkscape:pageopacity="0"
     inkscape:pagecheckerboard="0"
     inkscape:deskcolor="#505050"
     showgrid="true"
     inkscape:zoom="2.5213939"
     inkscape:cx="176.09307"
     inkscape:cy="266.32094"
     inkscape:window-width="1920"
     inkscape:window-height="1009"
     inkscape:window-x="-8"
     inkscape:window-y="-8"
     inkscape:window-maximized="1"
     inkscape:current-layer="layer1">
    <inkscape:grid
       id="grid5"
       units="px"
       originx="0"
       originy="0"
       spacingx="1"
       spacingy="1"
       empcolor="#0099e5"
       empopacity="0.30196078"
       color="#0099e5"
       opacity="0.14901961"
       empspacing="5"
       dotted="false"
       gridanglex="30"
       gridanglez="30"
       visible="true" />
  </sodipodi:namedview>
  <g
     inkscape:groupmode="layer"
     id="layer2"
     inkscape:label="Background">
    <rect
       style="fill:#141414;fill-opacity:1;stroke:#ffffff;stroke-width:1.5;stroke-opacity:0"
       id="rect3"
       width="456"
       height="456"
       x="0.81281966"
       y="0.76796776"
       rx="20"
       ry="20"
       inkscape:label="rect3" />
  </g>
  <g
     inkscape:groupmode="layer"
     id="layer1"
     inkscape:label="Foreground">
    <path
       style="fill:#8ac24a;fill-opacity:1;fill-rule:nonzero;stroke:none"
       d="M210.195 82.574c-70.66 0-127.933 57.156-127.933 127.66-.004 70.496 57.273 127.657 127.933 127.657h127.938V210.238c0-70.508-57.27-127.664-127.938-127.664zm91.39 218.84h-91.39c-50.476 0-91.382-40.816-91.382-91.176s40.906-91.187 91.382-91.187c50.48 0 91.39 40.82 91.39 91.187zM411.242 410.832h36.547v36.48h-36.547zM338.133 374.367h36.555v36.465h-36.555zM374.688 337.89h36.554v36.477h-36.555Zm0 0"
       transform="matrix(0.82073,0,0,0.82252,38.485,38.077)"
       id="path1" />
    <path
       style="fill:#212e33;fill-opacity:1;fill-rule:nonzero;stroke:none"
       d="M210.195 374.367c-90.843 0-164.492-73.492-164.492-164.129 0-90.648 73.649-164.129 164.492-164.129 90.848 0 164.493 73.477 164.493 164.13v91.179h36.554v-91.18c0-110.785-90.015-200.605-201.047-200.605-111.03 0-201.039 89.82-201.039 200.605 0 110.79 90.008 200.602 201.04 200.602h91.39V374.37zm0 0"
       transform="matrix(0.82073,0,0,0.82252,38.485,38.077)"
       id="path2" />
    <path
       style="fill:#212e33;fill-opacity:1;fill-rule:nonzero;stroke:none"
       d="M210.195 155.527c-30.285 0-54.824 24.485-54.824 54.711 0 30.219 24.54 54.711 54.824 54.711h54.836v-54.71c0-30.227-24.558-54.712-54.836-54.712zm18.278 72.946h-18.278c-10.093 0-18.277-8.172-18.277-18.235 0-10.07 8.184-18.238 18.277-18.238 10.11 0 18.278 8.164 18.278 18.238zm0 0"
       transform="matrix(0.82073,0,0,0.82252,38.485,38.077)"
       id="path3" />
  </g>
</svg>
