<?xml version="1.0" encoding="UTF-8" standalone="no"?>
<svg
   width="512px"
   height="512px"
   viewBox="0 0 512 512"
   version="1.1"
   id="svg6"
   sodipodi:docname="appiconfg.svg"
   inkscape:version="1.3.2 (091e20e, 2023-11-25, custom)"
   xmlns:inkscape="http://www.inkscape.org/namespaces/inkscape"
   xmlns:sodipodi="http://sodipodi.sourceforge.net/DTD/sodipodi-0.dtd"
   xmlns="http://www.w3.org/2000/svg"
   xmlns:svg="http://www.w3.org/2000/svg">
  <defs
     id="defs6" />
  <sodipodi:namedview
     id="namedview6"
     pagecolor="#ffffff"
     bordercolor="#000000"
     borderopacity="0.25"
     inkscape:showpageshadow="2"
     inkscape:pageopacity="0.0"
     inkscape:pagecheckerboard="0"
     inkscape:deskcolor="#d1d1d1"
     inkscape:zoom="1.7387645"
     inkscape:cx="190.36505"
     inkscape:cy="252.76568"
     inkscape:window-width="3840"
     inkscape:window-height="1494"
     inkscape:window-x="-11"
     inkscape:window-y="-11"
     inkscape:window-maximized="1"
     inkscape:current-layer="svg6" />
  <g
     id="surface1"
     transform="matrix(1.2024114,0,0,1.2024114,-51.286666,-51.28782)">
    <path
       style="fill:#8ac24a;fill-opacity:1;fill-rule:nonzero;stroke:none"
       d="m 238.93359,119.76172 c -65.98437,0 -119.46484,53.37109 -119.46484,119.20703 -0.004,65.83203 53.48047,119.20703 119.46484,119.20703 H 358.39844 V 238.97266 c 0,-65.83985 -53.47657,-119.21094 -119.46485,-119.21094 z m 85.33985,204.35156 h -85.33985 c -47.13672,0 -85.33203,-38.11328 -85.33203,-85.14062 0,-47.02344 38.19531,-85.14844 85.33203,-85.14844 47.13672,0 85.33985,38.11719 85.33985,85.14844 z m 0,0"
       id="path1" />
    <path
       style="fill:#8ac24a;fill-opacity:1;fill-rule:nonzero;stroke:none"
       d="m 426.66797,426.28906 h 34.1289 v 34.0625 h -34.1289 z m 0,0"
       id="path2" />
    <path
       style="fill:#8ac24a;fill-opacity:1;fill-rule:nonzero;stroke:none"
       d="m 358.39844,392.23828 h 34.13672 v 34.05078 h -34.13672 z m 0,0"
       id="path3" />
    <path
       style="fill:#8ac24a;fill-opacity:1;fill-rule:nonzero;stroke:none"
       d="m 392.53516,358.17578 h 34.13281 v 34.0625 h -34.13281 z m 0,0"
       id="path4" />
    <path
       style="fill:#233035;fill-opacity:1;fill-rule:nonzero;stroke:none"
       d="m 238.93359,392.23828 c -84.83203,0 -153.601559,-68.62891 -153.601559,-153.26562 0,-84.64454 68.769529,-153.261722 153.601559,-153.261722 84.83203,0 153.60157,68.613282 153.60157,153.261722 v 85.14453 h 34.13281 v -85.14453 c 0,-103.44922 -84.05469,-187.324222 -187.73438,-187.324222 -103.67968,0 -187.730465,83.875002 -187.730465,187.324222 0,103.45703 84.050785,187.32031 187.730465,187.32031 h 85.33985 v -34.05078 z m 0,0"
       id="path5" />
    <path
       style="fill:#233035;fill-opacity:1;fill-rule:nonzero;stroke:none"
       d="m 238.93359,187.88672 c -28.28125,0 -51.19531,22.86328 -51.19531,51.08594 0,28.21875 22.91406,51.08984 51.19531,51.08984 h 51.20313 v -51.08984 c 0,-28.22266 -22.92969,-51.08594 -51.20313,-51.08594 z M 256,256 h -17.06641 c -9.42578,0 -17.0664,-7.62891 -17.0664,-17.02734 0,-9.40235 7.64062,-17.03125 17.0664,-17.03125 9.4375,0 17.06641,7.625 17.06641,17.03125 z m 0,0"
       id="path6" />
  </g>
</svg>
