<?xml version="1.0" encoding="UTF-8"?>
<svg xmlns="http://www.w3.org/2000/svg" xmlns:xlink="http://www.w3.org/1999/xlink" width="456px" height="456px" viewBox="0 0 456 456" version="1.1">
<g id="surface1">
<path style=" stroke:none;fill-rule:nonzero;fill:rgb(100%,100%,100%);fill-opacity:1;" d="M 105.5 281.609375 C 102.796875 281.609375 100.5 280.707031 98.605469 278.90625 C 96.714844 277.058594 95.769531 274.863281 95.769531 272.324219 C 95.769531 269.738281 96.714844 267.519531 98.605469 265.671875 C 100.5 263.824219 102.796875 262.902344 105.5 262.902344 C 108.25 262.902344 110.566406 263.824219 112.460938 265.671875 C 114.398438 267.519531 115.367188 269.738281 115.367188 272.324219 C 115.367188 274.863281 114.398438 277.058594 112.460938 278.90625 C 110.566406 280.707031 108.25 281.609375 105.5 281.609375 Z M 105.5 281.609375 "/>
<path style=" stroke:none;fill-rule:nonzero;fill:rgb(100%,100%,100%);fill-opacity:1;" d="M 213.5625 280.085938 L 195.992188 280.085938 L 149.699219 207.054688 C 148.527344 205.207031 147.558594 203.289062 146.792969 201.304688 L 146.386719 201.304688 C 146.75 203.429688 146.929688 207.976562 146.929688 214.953125 L 146.929688 280.085938 L 131.386719 280.085938 L 131.386719 180.722656 L 150.105469 180.722656 L 194.84375 252.023438 C 196.734375 254.980469 197.949219 257.011719 198.492188 258.121094 L 198.761719 258.121094 C 198.3125 255.488281 198.085938 251.03125 198.085938 244.746094 L 198.085938 180.722656 L 213.5625 180.722656 Z M 213.5625 280.085938 "/>
<path style=" stroke:none;fill-rule:nonzero;fill:rgb(100%,100%,100%);fill-opacity:1;" d="M 289.25 280.085938 L 234.851562 280.085938 L 234.851562 180.722656 L 287.089844 180.722656 L 287.089844 194.722656 L 250.933594 194.722656 L 250.933594 222.851562 L 284.25 222.851562 L 284.25 236.777344 L 250.933594 236.777344 L 250.933594 266.15625 L 289.25 266.15625 Z M 289.25 280.085938 "/>
<path style=" stroke:none;fill-rule:nonzero;fill:rgb(100%,100%,100%);fill-opacity:1;" d="M 366.566406 194.722656 L 338.722656 194.722656 L 338.722656 280.085938 L 322.636719 280.085938 L 322.636719 194.722656 L 294.863281 194.722656 L 294.863281 180.722656 L 366.566406 180.722656 Z M 366.566406 194.722656 "/>
</g>
</svg>
