<?xml version="1.0" encoding="UTF-8" standalone="no"?>
<svg
   width="456px"
   height="456px"
   viewBox="0 0 456 456"
   version="1.1"
   id="svg6"
   sodipodi:docname="appicon.svg"
   inkscape:version="1.3.2 (091e20e, 2023-11-25, custom)"
   xmlns:inkscape="http://www.inkscape.org/namespaces/inkscape"
   xmlns:sodipodi="http://sodipodi.sourceforge.net/DTD/sodipodi-0.dtd"
   xmlns="http://www.w3.org/2000/svg"
   xmlns:svg="http://www.w3.org/2000/svg">
  <defs
     id="defs6" />
  <sodipodi:namedview
     id="namedview6"
     pagecolor="#ffffff"
     bordercolor="#000000"
     borderopacity="0.25"
     inkscape:showpageshadow="2"
     inkscape:pageopacity="0.0"
     inkscape:pagecheckerboard="0"
     inkscape:deskcolor="#d1d1d1"
     inkscape:zoom="1.3804825"
     inkscape:cx="98.878472"
     inkscape:cy="114.81493"
     inkscape:window-width="1649"
     inkscape:window-height="1266"
     inkscape:window-x="749"
     inkscape:window-y="54"
     inkscape:window-maximized="0"
     inkscape:current-layer="svg6" />
  <g
     id="surface1"
     transform="matrix(0.82073204,0,0,0.82251932,38.485172,38.076826)">
    <path
       style="fill:#8ac24a;fill-opacity:1;fill-rule:nonzero;stroke:none"
       d="m 210.19531,82.574219 c -70.66015,0 -127.933591,57.156251 -127.933591,127.660151 -0.0039,70.4961 57.273441,127.65625 127.933591,127.65625 h 127.9375 V 210.23828 c 0,-70.50781 -57.26953,-127.664061 -127.9375,-127.664061 z m 91.39063,218.839841 h -91.39063 c -50.47656,0 -91.38281,-40.8164 -91.38281,-91.17578 0,-50.35937 40.90625,-91.1875 91.38281,-91.1875 50.48047,0 91.39063,40.82031 91.39063,91.1875 z m 0,0"
       id="path1" />
    <path
       style="fill:#8ac24a;fill-opacity:1;fill-rule:nonzero;stroke:none"
       d="m 411.24219,410.83203 h 36.54687 v 36.48047 h -36.54687 z m 0,0"
       id="path2" />
    <path
       style="fill:#8ac24a;fill-opacity:1;fill-rule:nonzero;stroke:none"
       d="m 338.13281,374.36719 h 36.55469 v 36.46484 h -36.55469 z m 0,0"
       id="path3" />
    <path
       style="fill:#8ac24a;fill-opacity:1;fill-rule:nonzero;stroke:none"
       d="m 374.6875,337.89062 h 36.55469 v 36.47657 H 374.6875 Z m 0,0"
       id="path4" />
    <path
       style="fill:#212e33;fill-opacity:1;fill-rule:nonzero;stroke:none"
       d="m 210.19531,374.36719 c -90.84375,0 -164.492185,-73.49219 -164.492185,-164.12891 0,-90.64844 73.648435,-164.128905 164.492185,-164.128905 90.84766,0 164.49219,73.476565 164.49219,164.128905 v 91.17969 h 36.55469 V 210.23828 C 411.24219,99.453125 321.22656,9.632812 210.19531,9.632812 99.164062,9.632812 9.15625,99.453125 9.15625,210.23828 c 0,110.78906 90.007812,200.60156 201.03906,200.60156 h 91.39063 v -36.46875 z m 0,0"
       id="path5" />
    <path
       style="fill:#212e33;fill-opacity:1;fill-rule:nonzero;stroke:none"
       d="m 210.19531,155.52734 c -30.28515,0 -54.82422,24.48438 -54.82422,54.71094 0,30.21875 24.53907,54.71094 54.82422,54.71094 h 54.83594 v -54.71094 c 0,-30.22656 -24.55859,-54.71094 -54.83594,-54.71094 z m 18.27735,72.94532 h -18.27735 c -10.09375,0 -18.27734,-8.17188 -18.27734,-18.23438 0,-10.07031 8.18359,-18.23828 18.27734,-18.23828 10.10938,0 18.27735,8.16406 18.27735,18.23828 z m 0,0"
       id="path6" />
  </g>
</svg>
