<?xml version="1.0" encoding="utf-8"?>
<!-- Generator: Adobe Illustrator 16.0.0, SVG Export Plug-In . SVG Version: 6.00 Build 0)  -->
<!DOCTYPE svg PUBLIC "-//W3C//DTD SVG 1.0//EN" "http://www.w3.org/TR/2001/REC-SVG-20010904/DTD/svg10.dtd">
<svg version="1.0" id="Layer_1" xmlns="http://www.w3.org/2000/svg" xmlns:xlink="http://www.w3.org/1999/xlink" x="0px" y="0px"
	 width="100px" height="100px" viewBox="0 0 100 100" enable-background="new 0 0 100 100" xml:space="preserve">
<path fill="#8BC34A" d="M46.667,23.333c-12.888,0-23.333,10.446-23.333,23.333C23.333,59.553,33.779,70,46.667,70H70V46.667
	C70,33.779,59.555,23.333,46.667,23.333z M63.334,63.333L63.334,63.333H46.667C37.461,63.333,30,55.872,30,46.667
	S37.461,30,46.667,30s16.667,7.461,16.667,16.667V63.333z"/>
<rect x="83.333" y="83.333" fill="#8BC34A" width="6.667" height="6.667"/>
<rect x="70" y="76.667" fill="#8BC34A" width="6.667" height="6.666"/>
<rect x="76.667" y="70" fill="#8BC34A" width="6.666" height="6.667"/>
<path fill="#263238" d="M46.667,76.667c-16.569,0-30-13.433-30-30c0-16.568,13.431-30,30-30s30,13.431,30,30v16.667h6.666V46.667
	C83.333,26.417,66.917,10,46.667,10S10,26.417,10,46.667c0,20.251,16.417,36.667,36.667,36.667h16.667v-6.666L46.667,76.667
	L46.667,76.667z"/>
<path fill="#263238" d="M46.667,36.667c-5.524,0-10,4.476-10,10c0,5.524,4.476,10,10,10h10v-10
	C56.667,41.143,52.189,36.667,46.667,36.667z M50,50h-3.333c-1.841,0-3.333-1.493-3.333-3.333s1.492-3.333,3.333-3.333
	c1.843,0,3.333,1.492,3.333,3.333V50z"/>
</svg>
