<?xml version="1.0" encoding="UTF-8" standalone="no"?>
<svg
   width="456px"
   height="456px"
   viewBox="0 0 456 455"
   version="1.1"
   id="svg6"
   sodipodi:docname="splash.svg"
   inkscape:version="1.3.2 (091e20e, 2023-11-25, custom)"
   xmlns:inkscape="http://www.inkscape.org/namespaces/inkscape"
   xmlns:sodipodi="http://sodipodi.sourceforge.net/DTD/sodipodi-0.dtd"
   xmlns="http://www.w3.org/2000/svg"
   xmlns:svg="http://www.w3.org/2000/svg">
  <defs
     id="defs6" />
  <sodipodi:namedview
     id="namedview6"
     pagecolor="#ffffff"
     bordercolor="#000000"
     borderopacity="0.25"
     inkscape:showpageshadow="2"
     inkscape:pageopacity="0.0"
     inkscape:pagecheckerboard="0"
     inkscape:deskcolor="#d1d1d1"
     inkscape:zoom="1.3804825"
     inkscape:cx="156.46703"
     inkscape:cy="231.80301"
     inkscape:window-width="2090"
     inkscape:window-height="1463"
     inkscape:window-x="1021"
     inkscape:window-y="9"
     inkscape:window-maximized="0"
     inkscape:current-layer="svg6" />
  <g
     id="surface1"
     transform="matrix(0.98685056,0,0,0.98901099,0.998073,0.5)">
    <path
       style="fill:#8ac24a;fill-opacity:1;fill-rule:nonzero;stroke:none"
       d="m 212.80078,106.16406 c -58.76953,0 -106.39844,47.53125 -106.39844,106.16797 C 106.39844,270.96484 154.03125,318.5 212.80078,318.5 H 319.19922 V 212.33594 c 0,-58.64063 -47.62891,-106.17188 -106.39844,-106.17188 z m 76.00391,182 h -76.00391 c -41.98047,0 -76,-33.94531 -76,-75.82812 0,-41.88282 34.01953,-75.83594 76,-75.83594 41.98047,0 76.00391,33.94922 76.00391,75.83594 z m 0,0"
       id="path1" />
    <path
       style="fill:#8ac24a;fill-opacity:1;fill-rule:nonzero;stroke:none"
       d="m 380,379.16406 h 30.39844 V 409.5 H 380 Z m 0,0"
       id="path2" />
    <path
       style="fill:#8ac24a;fill-opacity:1;fill-rule:nonzero;stroke:none"
       d="m 319.19922,348.83594 h 30.40234 v 30.32812 h -30.40234 z m 0,0"
       id="path3" />
    <path
       style="fill:#8ac24a;fill-opacity:1;fill-rule:nonzero;stroke:none"
       d="M 349.60156,318.5 H 380 v 30.33594 h -30.39844 z m 0,0"
       id="path4" />
    <path
       style="fill:#233035;fill-opacity:1;fill-rule:nonzero;stroke:none"
       d="M 212.80078,348.83594 C 137.24609,348.83594 76,287.71484 76,212.33594 76,136.94922 137.24609,75.835938 212.80078,75.835938 c 75.55469,0 136.80078,61.109372 136.80078,136.500002 v 75.83203 H 380 V 212.33594 C 380,120.19922 305.14062,45.5 212.80078,45.5 c -92.33984,0 -167.199218,74.69922 -167.199218,166.83594 0,92.14062 74.859378,166.83203 167.199218,166.83203 h 76.00391 v -30.32813 z m 0,0"
       id="path5" />
    <path
       style="fill:#233035;fill-opacity:1;fill-rule:nonzero;stroke:none"
       d="m 212.80078,166.83594 c -25.1875,0 -45.59766,20.36328 -45.59766,45.5 0,25.13281 20.41016,45.5 45.59766,45.5 h 45.60156 v -45.5 c 0,-25.13672 -20.42187,-45.5 -45.60156,-45.5 z M 228,227.5 h -15.19922 c -8.39453,0 -15.19922,-6.79297 -15.19922,-15.16406 0,-8.375 6.80469,-15.16797 15.19922,-15.16797 8.40625,0 15.19922,6.78906 15.19922,15.16797 z m 0,0"
       id="path6" />
  </g>
</svg>
