<svg xmlns="http://www.w3.org/2000/svg" viewBox="0 0 456 456">
	<path style="fill:#8ac24a;fill-opacity:1;fill-rule:nonzero;stroke:none" d="M210.195 82.574c-70.66 0-127.933 57.156-127.933 127.66-.004 70.496 57.273 127.657 127.933 127.657h127.938V210.238c0-70.508-57.27-127.664-127.938-127.664zm91.39 218.84h-91.39c-50.476 0-91.382-40.816-91.382-91.176s40.906-91.187 91.382-91.187c50.48 0 91.39 40.82 91.39 91.187zM411.242 410.832h36.547v36.48h-36.547zM338.133 374.367h36.555v36.465h-36.555zM374.688 337.89h36.554v36.477h-36.555Zm0 0" transform="matrix(.82073 0 0 .82252 38.485 38.077)"/>
	<path style="fill:#212e33;fill-opacity:1;fill-rule:nonzero;stroke:none" d="M210.195 374.367c-90.843 0-164.492-73.492-164.492-164.129 0-90.648 73.649-164.129 164.492-164.129 90.848 0 164.493 73.477 164.493 164.13v91.179h36.554v-91.18c0-110.785-90.015-200.605-201.047-200.605-111.03 0-201.039 89.82-201.039 200.605 0 110.79 90.008 200.602 201.04 200.602h91.39V374.37zm0 0" transform="matrix(.82073 0 0 .82252 38.485 38.077)"/>
	<path style="fill:#212e33;fill-opacity:1;fill-rule:nonzero;stroke:none" d="M210.195 155.527c-30.285 0-54.824 24.485-54.824 54.711 0 30.219 24.54 54.711 54.824 54.711h54.836v-54.71c0-30.227-24.558-54.712-54.836-54.712zm18.278 72.946h-18.278c-10.093 0-18.277-8.172-18.277-18.235 0-10.07 8.184-18.238 18.277-18.238 10.11 0 18.278 8.164 18.278 18.238zm0 0" transform="matrix(.82073 0 0 .82252 38.485 38.077)"/>
</svg>